<?xml version="1.0" encoding="utf-8"?>
<?xml-stylesheet type="text/xsl" href="rss1.xsl"?>
<rss version="2.0" xmlns:atom="http://www.w3.org/2005/Atom" xmlns:content="http://purl.org/rss/1.0/modules/content/" xmlns:dc="http://purl.org/dc/elements/1.1/" xmlns:media="http://search.yahoo.com/mrss/">
<channel>
 <title>Getty</title>
 <link>http://www.gettyimg.com/</link>
 <atom:link href="http://www.gettyimg.com/" rel="self" type="application/rss+xml" />

 
                <item>
                <title><![CDATA[【UPSCALED】Shakira - Seat Good Stuff [HD] (2009/2010)]]></title>
                <link><![CDATA[https://sharemania.us/threads/shakira-seat-good-stuff-hd-2009-2010.240464/]]></link>
                <description><![CDATA[<article>
<blockquote class="messageText SelectQuoteContainer ugc baseHtml">
<div style="text-align: center"><img src="https://i.postimg.cc/kGWyZyYS/Shakira-Seat-Good-Stuff-HD-2009-mp4-snapshot-00-02-944.jpg" class="bbCodeImage LbImage" alt="[​IMG]" data-url="https://i.postimg.cc/kGWyZyYS/Shakira-Seat-Good-Stuff-HD-2009-mp4-snapshot-00-02-944.jpg" style=""> <br>
<img src="https://i.postimg.cc/50h3nrg1/Shakira-Seat-Good-Stuff-HD-2009-mp4-thumbs.jpg" class="bbCodeImage LbImage" alt="[​IMG]" data-url="https://i.postimg.cc/50h3nrg1/Shakira-Seat-Good-Stuff-HD-2009-mp4-thumbs.jpg" style=""> <br>
<div class="bbCodeBlock bbCodeVfcHH HiddenContent">
<div class="attribution type">Hidden Content:</div>
<blockquote>You must either reply or click 'Like' to see the hidden information contained here.</blockquote>
</div></div>
<div class="messageTextEndMarker">&nbsp;</div>
</blockquote>
</article>]]></description>
                <author><![CDATA[Fan Made]]></author>
                </item>

                
                <item>
                <title><![CDATA[【Apple Music】WEB-RiP - Olivia Rodrigo - obsessed [E] 'A.M WEB-DL.4K.AAC2.0-fstambuk']]></title>
                <link><![CDATA[https://sharemania.us/threads/olivia-rodrigo-obsessed-e-a-m-web-dl-4k-aac2-0-fstambuk.240465/]]></link>
                <description><![CDATA[<article>
<blockquote class="messageText SelectQuoteContainer ugc baseHtml">
<div style="text-align: center"><img src="https://i.ibb.co/f4QgsGs/20240322140451.gif" class="bbCodeImage LbImage" alt="[​IMG]" data-url="https://i.ibb.co/f4QgsGs/20240322140451.gif" style=""><br>
​</div>
<div class="ToggleTriggerAnchor bbCodeSpoilerContainer">
<button type="button" class="button bbCodeSpoilerButton ToggleTrigger Tooltip JsOnly" data-target="> .SpoilerTarget"><span>Spoiler: <span class="SpoilerTitle">Apple Music</span></span></button>
<div class="SpoilerTarget bbCodeSpoilerText">
<div class="bbCodeBlock bbCodeCode">
<div class="type">Code:</div>
<pre>General
Complete name                            : Olivia Rodrigo - obsessed [E] 'A.M WEB-DL.1080.AAC2.0-fstambuk'.mp4
Format                                   : MPEG-4
Format profile                           : Base Media
Codec ID                                 : isom (isom/iso4)
File size                                : 460 MiB
Duration                                 : 3 min 4 s
Overall bit rate mode                    : Variable
Overall bit rate                         : 20.9 Mb/s
Frame rate                               : 24.000 FPS
Movie name                               : obsessed
Performer                                : Olivia Rodrigo
Genre                                    : Pop
ContentType                              : Music Video
Recorded date                            : 2024-03-22
Encoded date                             : 2024-03-22 13:57:40 UTC
Tagged date                              : 2024-03-22 13:57:40 UTC
ISRC                                     : USUMV2400163
Cover                                    : Yes
Rating                                   : Explicit

Video
ID                                       : 1
Format                                   : HEVC
Format/Info                              : High Efficiency Video Coding
Format profile                           : Main 10@L5@High
Codec ID                                 : hvc1
Codec ID/Info                            : High Efficiency Video Coding
Duration                                 : 3 min 4 s
Bit rate                                 : 20.6 Mb/s
Maximum bit rate                         : 42.9 Mb/s
Width                                    : 2 880 pixels
Height                                   : 2 160 pixels
Display aspect ratio                     : 4:3
Frame rate mode                          : Constant
Frame rate                               : 24.000 FPS
Color space                              : YUV
Chroma subsampling                       : 4:2:0
Bit depth                                : 10 bits
Scan type                                : Progressive
Bits/(Pixel*Frame)                       : 0.138
Stream size                              : 452 MiB (98%)
Default                                  : Yes
Alternate group                          : 1
Encoded date                             : 2024-03-21 00:51:54 UTC
Tagged date                              : 2024-03-22 13:58:17 UTC
Color range                              : Limited
Color primaries                          : BT.709
Transfer characteristics                 : BT.709
Matrix coefficients                      : BT.709
Codec configuration box                  : hvcC

Audio
ID                                       : 2
Format                                   : AAC LC
Format/Info                              : Advanced Audio Codec Low Complexity
Codec ID                                 : 2 / 40 / mp4a-40-2
Duration                                 : 3 min 4 s
Duration_LastFrame                       : -1 ms
Bit rate mode                            : Variable
Bit rate                                 : 277 kb/s
Maximum bit rate                         : 383 kb/s
Channel(s)                               : 2 channels
Channel layout                           : L R
Sampling rate                            : 48.0 kHz
Frame rate                               : 46.875 FPS (1024 SPF)
Compression mode                         : Lossy
Stream size                              : 6.10 MiB (1%)
Language                                 : English
Default                                  : Yes
Alternate group                          : 2
Encoded date                             : 2024-03-21 00:47:22 UTC
Tagged date                              : 2024-03-22 13:58:17 UTC

Text
ID                                       : 3
Format                                   : Timed Text
Codec ID                                 : tx3g
Duration                                 : 2 min 40 s
Bit rate mode                            : Variable
Bit rate                                 : 125 b/s
Frame rate                               : 0.491 FPS
Stream size                              : 2.46 KiB (0%)
Language                                 : English
Default                                  : Yes
Forced                                   : No
Alternate group                          : 3
Encoded date                             : 2024-03-22 13:58:16 UTC
Tagged date                              : 2024-03-22 13:58:17 UTC
Count of events                          : 39

</pre>
</div><div style="text-align: center">​</div></div>
</div><div style="text-align: center">
<div class="bbCodeBlock bbCodeVfcHH HiddenContent">
<div class="attribution type">Hidden Content:</div>
<blockquote>You must reply before you can see the hidden data contained here.</blockquote>
</div></div>
<div class="messageTextEndMarker">&nbsp;</div>
</blockquote>
</article>]]></description>
                <author><![CDATA[fstambuk]]></author>
                </item>

                </channel></rss>